<svg width="28" height="28" viewBox="0 0 28 28" fill="none" xmlns="http://www.w3.org/2000/svg">
<path fill-rule="evenodd" clip-rule="evenodd" d="M20.3598 10.7526C20.2724 10.8738 20.0715 11.0692 20.0715 11.0692C19.3604 11.8278 17.592 12.9704 16.6948 13.3374C16.6948 13.3451 16.1613 13.5627 15.9075 13.5712L15.8737 13.5712C15.4849 13.5712 15.1212 13.3536 14.935 13.0037C14.8582 12.8595 14.7868 12.5087 14.7524 12.3394C14.7409 12.2834 14.7336 12.2472 14.7314 12.2451C14.6552 11.745 14.605 10.9779 14.605 10.1356C14.605 9.25156 14.6552 8.45112 14.7488 7.95874C14.7488 7.95021 14.8414 7.50049 14.9012 7.3503C14.9938 7.13355 15.1636 6.95008 15.3749 6.83318C15.5438 6.74955 15.7222 6.70859 15.9075 6.70859C16.1024 6.71627 16.4661 6.84171 16.6099 6.89974C17.5582 7.26668 19.3691 8.46734 20.0628 9.20121C20.1402 9.27745 20.2212 9.3642 20.2776 9.42457C20.3077 9.45678 20.3308 9.48148 20.3425 9.49306C20.4863 9.67653 20.5625 9.90181 20.5625 10.1442C20.5625 10.3601 20.4949 10.5768 20.3598 10.7526ZM15.3405 18.5415C14.9586 18.5415 14.6494 18.2369 14.6494 17.8606C14.6494 17.4842 14.9586 17.1796 15.3405 17.1796L18.6792 16.9919C19.1659 16.9919 19.56 17.381 19.56 17.8606C19.56 18.3401 19.1659 18.7284 18.6792 18.7284L15.3405 18.5415ZM13.0993 20.6497C13.0057 20.8665 12.8368 21.0499 12.6255 21.1668C12.4566 21.2505 12.2782 21.2914 12.092 21.2914C11.898 21.2837 11.5334 21.1583 11.3896 21.0994C10.4422 20.7333 8.63125 19.5318 7.93667 18.7988C7.86115 18.7238 7.78171 18.6387 7.72552 18.5785L7.72551 18.5785L7.7255 18.5785C7.69407 18.5448 7.66991 18.5189 7.65779 18.5069C7.51403 18.3226 7.43781 18.0982 7.43781 17.8567C7.43781 17.6391 7.50537 17.4223 7.64134 17.2474C7.72794 17.1262 7.92887 16.9308 7.92887 16.9308C8.63904 16.1713 10.4084 15.0296 11.3056 14.6626C11.3056 14.6541 11.8383 14.4373 12.092 14.4288L12.1258 14.4288C12.5155 14.4288 12.8793 14.6456 13.0655 14.9963C13.1414 15.1402 13.213 15.4899 13.2478 15.6596C13.2593 15.7162 13.2668 15.7528 13.269 15.7549C13.3452 16.255 13.3954 17.0221 13.3954 17.8644C13.3954 18.7484 13.3452 19.5489 13.2517 20.0413C13.2517 20.0489 13.159 20.4995 13.0993 20.6497ZM13.3508 10.1396C13.3508 9.76326 13.0416 9.45861 12.6597 9.45861L9.3211 9.27087C8.83439 9.27087 8.44034 9.66 8.44034 10.1396C8.44034 10.6192 8.83439 11.0074 9.3211 11.0074L12.6597 10.8206C13.0416 10.8206 13.3508 10.5159 13.3508 10.1396Z" fill="#475569"/>
</svg>
